<svg width="512" height="512" viewBox="0 0 512 512" fill="none" xmlns="http://www.w3.org/2000/svg">
<g clip-path="url(#clip0_7_218)">
<path d="M444.564 128.516C438.489 128.516 433.564 123.591 433.564 117.516V24.4192H383.236V77.5876C383.236 83.6624 378.311 88.5872 372.236 88.5872C366.162 88.5872 361.237 83.6624 361.237 77.5876V23.5953C361.237 11.9196 370.735 2.41992 382.412 2.41992H434.388C446.065 2.41992 455.564 11.9186 455.564 23.5953V117.516C455.564 123.591 450.639 128.516 444.564 128.516Z" fill="#7B97EF"/>
<path d="M511.16 148.797C509.592 143.364 506.001 138.865 501.049 136.131L261.316 3.78696C258.007 1.96001 253.993 1.96001 250.683 3.78696L10.9506 136.131C5.99878 138.865 2.40789 143.363 0.839937 148.797C-0.728014 154.232 -0.086034 159.951 2.64788 164.904L12.4806 182.712C16.3375 189.699 23.5862 193.65 31.054 193.65C34.5109 193.65 38.0168 192.802 41.2517 191.017L56.4362 182.635V488.409C56.4362 500.084 65.9359 509.584 77.6115 509.584H434.389C446.066 509.584 455.565 500.085 455.565 488.409V182.635L470.749 191.017C480.972 196.659 493.877 192.934 499.52 182.713L509.353 164.905C512.087 159.952 512.728 154.232 511.16 148.797ZM433.564 487.584H78.4355V170.492L256 72.4768L433.564 170.493V487.584ZM31.341 171.359L22.3043 154.992L256 25.9813L489.695 154.992L480.659 171.359L261.315 50.2815C259.661 49.3685 257.831 48.9115 256 48.9115C254.169 48.9115 252.338 49.3685 250.684 50.2815L31.341 171.359Z" fill="black"/>
<path d="M200.945 269.59C203.53 265.258 205.021 260.201 205.021 254.8C205.021 238.835 192.033 225.848 176.068 225.848H153.405C147.33 225.848 142.406 230.773 142.406 236.848V272.774V272.832V314.869C142.406 320.944 147.33 325.869 153.404 325.869L180.025 325.87C197.671 325.87 212.026 311.473 212.026 293.776C212.026 284.123 207.724 275.462 200.945 269.59ZM176.068 247.847C179.902 247.847 183.021 250.966 183.021 254.8C183.021 258.634 179.902 261.753 176.068 261.753C174.385 261.753 171.197 261.762 167.732 261.775H164.405V247.847H176.068ZM180.026 303.869L164.405 303.868V283.786C165.532 283.782 166.67 283.778 167.78 283.774H180.026C185.541 283.774 190.028 288.261 190.028 293.775C190.027 299.342 185.54 303.869 180.026 303.869Z" fill="#7B97EF"/>
<path d="M364.595 227.827C359.501 224.511 352.689 225.953 349.375 231.045L333.862 254.874L318.165 230.834C314.846 225.748 308.027 224.316 302.941 227.638C297.855 230.96 296.424 237.776 299.746 242.862L322.87 278.276L322.78 314.843C322.765 320.918 327.678 325.855 333.753 325.87C333.763 325.87 333.77 325.87 333.78 325.87C339.841 325.87 344.764 320.963 344.779 314.897L344.869 278.293L367.811 243.047C371.127 237.956 369.686 231.141 364.595 227.827Z" fill="#7B97EF"/>
<path d="M254.488 325.869C254.467 325.869 254.446 325.869 254.426 325.869C247.017 325.859 240.191 323.893 234.138 320.025C222.648 312.684 216.821 302.762 216.821 290.535V236.848C216.821 230.773 221.746 225.848 227.821 225.848C233.896 225.848 238.82 230.773 238.82 236.848C238.82 236.848 238.82 290.38 238.82 290.535C238.82 298.419 247.226 303.859 254.456 303.869C261.872 303.879 271.034 298.868 271.034 290.479V236.849C271.034 230.774 275.959 225.849 282.034 225.849C288.109 225.849 293.034 230.774 293.034 236.849V290.479C293.034 299.974 289.432 313.105 272.276 321.745C266.845 324.481 260.859 325.869 254.488 325.869Z" fill="#7B97EF"/>
<path d="M391.03 368.499H333.879C327.804 368.499 322.879 363.575 322.879 357.5C322.879 351.425 327.804 346.5 333.879 346.5H390.01V206.126H121.99V346.5H295.34C301.415 346.5 306.339 351.425 306.339 357.5C306.339 363.575 301.415 368.499 295.34 368.499H120.97C109.403 368.499 99.9908 359.088 99.9908 347.52V205.106C99.9908 193.538 109.403 184.126 120.97 184.126H391.03C402.597 184.126 412.008 193.538 412.008 205.106V347.52C412.009 359.088 402.597 368.499 391.03 368.499Z" fill="black"/>
<path d="M350.321 467.102C344.957 467.068 339.651 464.398 336.674 459.563L321.299 434.589L319.15 435.912C314.39 438.844 308.567 439.091 303.574 436.576C298.581 434.06 295.314 429.234 294.837 423.662L288.481 349.473C287.962 343.417 290.855 337.678 296.03 334.492C301.206 331.307 307.631 331.309 312.804 334.498L376.184 373.578C380.944 376.514 383.784 381.604 383.782 387.196C383.779 392.787 380.935 397.875 376.175 400.804L374.025 402.127C374.025 402.127 389.384 427.073 389.402 427.102C393.874 434.364 391.39 444.655 384.17 449.101C384.17 449.101 358.696 464.784 358.675 464.796C356.107 466.377 353.205 467.121 350.321 467.102ZM324.888 408.455C328.581 408.455 332.188 410.314 334.266 413.689L352.257 442.912L367.516 433.518L349.523 404.294C347.994 401.81 347.513 398.82 348.189 395.983C348.864 393.145 350.639 390.691 353.124 389.161L356.334 387.185L311.417 359.489L315.922 412.065L319.133 410.088C320.93 408.982 322.922 408.455 324.888 408.455Z" fill="#7B97EF"/>
</g>
<defs>
<clipPath id="clip0_7_218">
<rect width="512" height="512" fill="white"/>
</clipPath>
</defs>
</svg>
