<svg width="512" height="512" viewBox="0 0 512 512" fill="none" xmlns="http://www.w3.org/2000/svg">
<g clip-path="url(#clip0_7_232)">
<path d="M385.107 490H297.498V295.671C297.498 289.596 292.573 284.671 286.498 284.671C280.423 284.671 275.498 289.596 275.498 295.671V490H236.502V295.671C236.502 289.596 231.577 284.671 225.502 284.671C219.427 284.671 214.502 289.596 214.502 295.671V490H126.892C120.817 490 115.892 494.925 115.892 501C115.892 507.075 120.817 512 126.892 512H385.108C391.183 512 396.108 507.075 396.108 501C396.108 494.925 391.183 490 385.107 490Z" fill="black"/>
<path d="M225.502 80.204C219.427 80.204 214.502 75.279 214.502 69.204V41.498C214.502 18.616 233.118 0 256 0C278.882 0 297.498 18.616 297.498 41.498V68.176C297.498 74.251 292.573 79.176 286.498 79.176C280.423 79.176 275.498 74.251 275.498 68.176V41.498C275.498 30.747 266.751 22 256 22C245.249 22 236.502 30.747 236.502 41.498V69.204C236.502 75.279 231.577 80.204 225.502 80.204Z" fill="black"/>
<path d="M267.946 243.398C261.871 243.398 256.946 238.473 256.946 232.398V133.397C256.946 128.583 260.076 124.328 264.673 122.895C269.268 121.461 274.262 123.185 276.998 127.146L326.152 198.326L325.524 133.318C325.464 127.243 330.341 122.271 336.417 122.212C336.453 122.211 336.49 122.211 336.525 122.211C342.551 122.211 347.464 127.066 347.522 133.105L348.449 228.949C348.45 228.985 348.45 229.02 348.45 229.055C348.45 235.113 345.036 240.095 339.753 241.745C334.585 243.358 329.125 241.331 325.836 236.583L278.946 168.683V232.397C278.946 238.473 274.022 243.398 267.946 243.398Z" fill="black"/>
<path d="M215.511 220.945H185.099V193.805H212.457C218.532 193.805 223.457 188.88 223.457 182.805C223.457 176.73 218.532 171.805 212.457 171.805H185.099V144.664H215.511C221.586 144.664 226.511 139.739 226.511 133.664C226.511 127.589 221.586 122.664 215.511 122.664H174.099C168.024 122.664 163.099 127.589 163.099 133.664V231.945C163.099 238.02 168.024 242.945 174.099 242.945H215.511C221.586 242.945 226.511 238.02 226.511 231.945C226.511 225.87 221.586 220.945 215.511 220.945Z" fill="black"/>
<path d="M444.07 122.212H416.977C416.841 122.207 416.708 122.191 416.571 122.191C416.434 122.191 416.301 122.207 416.165 122.212H389.294C383.219 122.212 378.294 127.137 378.294 133.212C378.294 139.287 383.219 144.212 389.294 144.212H405.571V232.398C405.571 238.473 410.496 243.398 416.571 243.398C422.646 243.398 427.571 238.473 427.571 232.398V144.212H444.07C450.145 144.212 455.07 139.287 455.07 133.212C455.07 127.137 450.146 122.212 444.07 122.212Z" fill="black"/>
<path d="M103.098 194.777C119.962 190.95 132.555 176.362 132.555 158.989C132.555 138.71 115.403 122.212 94.32 122.212H67.962C67.957 122.212 67.951 122.213 67.946 122.213C67.941 122.213 67.935 122.212 67.93 122.212C61.855 122.212 56.93 127.137 56.93 133.212V232.398C56.93 238.473 61.855 243.398 67.93 243.398C74.005 243.398 78.93 238.473 78.93 232.398V200.617L113.297 239.666C115.472 242.137 118.508 243.398 121.559 243.398C124.14 243.398 126.733 242.495 128.823 240.655C133.384 236.641 133.827 229.691 129.813 225.13L103.098 194.777ZM79.082 173.82C79.055 168.429 79.027 162.381 79.027 158.989C79.027 156.096 79.011 149.841 78.995 144.212H94.319C103.12 144.212 110.554 150.979 110.554 158.989C110.554 166.999 103.119 173.766 94.319 173.766C90.801 173.767 84.583 173.793 79.082 173.82Z" fill="black"/>
<path d="M501 304.614H64.246C28.82 304.614 0 275.793 0 240.368V71.996C0 65.921 4.925 60.996 11 60.996H447.754C483.18 60.996 512 89.817 512 125.242V293.614C512 299.69 507.075 304.614 501 304.614ZM22 82.996V240.368C22 263.663 40.951 282.615 64.246 282.615H490V125.242C490 101.948 471.049 82.996 447.754 82.996H22Z" fill="#7B97EF"/>
</g>
<defs>
<clipPath id="clip0_7_232">
<rect width="512" height="512" fill="white"/>
</clipPath>
</defs>
</svg>
