<svg width="512" height="512" viewBox="0 0 512 512" fill="none" xmlns="http://www.w3.org/2000/svg">
<g clip-path="url(#clip0_7_247)">
<path d="M234.393 339.666C234.355 339.565 234.315 339.465 234.275 339.366C232.22 334.37 227.404 331.144 222.003 331.144C221.999 331.144 221.995 331.144 221.991 331.144C216.584 331.149 211.768 334.386 209.721 339.389C209.687 339.472 209.654 339.556 209.622 339.639L172.015 438.381C169.853 444.058 172.703 450.413 178.38 452.576C179.669 453.067 180.991 453.299 182.293 453.299C186.726 453.299 190.903 450.6 192.575 446.211L199.243 428.704H244.481L251.076 446.179C253.221 451.863 259.568 454.73 265.251 452.587C270.935 450.442 273.804 444.095 271.659 438.412L234.393 339.666ZM207.62 406.704L221.964 369.042L236.177 406.704H207.62Z" fill="black"/>
<path d="M349.213 453.208C355.288 453.174 360.185 448.222 360.152 442.146C360.118 436.092 355.2 431.208 349.153 431.208C349.132 431.208 349.111 431.208 349.09 431.208C340.746 431.255 331.775 431.288 325.081 431.292V342.14C325.081 336.065 320.156 331.14 314.081 331.14C308.006 331.14 303.081 336.065 303.081 342.14V442.208C303.081 447.567 306.943 452.146 312.226 453.05L349.213 453.208Z" fill="black"/>
<path d="M443.054 431.293H412.24V403.674H439.971C446.046 403.674 450.971 398.749 450.971 392.674C450.971 386.599 446.046 381.674 439.971 381.674H412.24V354.055H443.054C449.129 354.055 454.054 349.13 454.054 343.055C454.054 336.98 449.129 332.055 443.054 332.055H401.24C395.165 332.055 390.24 336.98 390.24 343.055V442.293C390.24 448.368 395.165 453.293 401.24 453.293H443.054C449.129 453.293 454.054 448.368 454.054 442.293C454.054 436.218 449.129 431.293 443.054 431.293Z" fill="black"/>
<path d="M103.847 453.296C87.364 453.296 71.269 446.395 60.795 434.836C56.716 430.334 57.058 423.378 61.56 419.298C66.061 415.219 73.018 415.561 77.098 420.063C83.471 427.096 93.471 431.295 103.847 431.295C114.322 431.295 121.728 424.869 122.838 418.656C124.369 410.081 113.487 405.081 108.737 403.329C93.251 397.617 79.504 391.498 78.926 391.24C78.396 391.004 77.886 390.725 77.4 390.409C67.34 383.85 62.158 372.347 63.875 360.386C65.71 347.6 75.084 337.176 88.337 333.184C114.922 325.176 136.832 343.245 137.752 344.019C142.402 347.928 143.003 354.867 139.094 359.518C135.199 364.151 128.296 364.765 123.646 360.902C123.321 360.64 109.626 349.747 94.683 354.25C87.417 356.438 85.947 361.457 85.652 363.513C85.193 366.711 86.373 369.669 88.827 371.563C92.147 373.019 103.807 378.063 116.35 382.689C140.739 391.685 146.88 409.165 144.495 422.524C141.311 440.354 124.216 453.296 103.847 453.296Z" fill="black"/>
<path d="M344.737 229.446H283.741C277.666 229.446 272.741 224.521 272.741 218.446V157.134C272.741 151.059 277.666 146.134 283.741 146.134H344.737C350.812 146.134 355.737 151.059 355.737 157.134V218.446C355.737 224.521 350.812 229.446 344.737 229.446ZM294.741 207.446H333.737V168.134H294.741V207.446Z" fill="#7B97EF"/>
<path d="M457.639 120.565L258.894 1.55697C255.49 -0.510027 250.989 -0.512027 247.586 1.55997L48.847 120.565C43.635 123.686 41.94 130.441 45.061 135.654C47.123 139.096 50.769 141.004 54.509 141.004C56.432 141.004 58.38 140.5 60.15 139.44L81.165 126.856V278.632C81.165 284.707 86.09 289.632 92.165 289.632C98.24 289.632 103.165 284.707 103.165 278.632V113.682L253.243 23.815L403.315 113.678V278.632C403.315 284.707 408.24 289.632 414.315 289.632C420.39 289.632 425.315 284.707 425.315 278.632V126.852L446.336 139.44C448.107 140.5 450.054 141.004 451.977 141.004C455.717 141.004 459.364 139.096 461.425 135.654C464.546 130.441 462.851 123.686 457.639 120.565Z" fill="black"/>
<path d="M501 272.442H233.747V157.13C233.747 151.055 228.822 146.13 222.747 146.13H161.751C155.676 146.13 150.751 151.055 150.751 157.13V272.443H11C4.925 272.443 0 277.368 0 283.443V500.995C0 507.07 4.925 511.995 11 511.995H501C507.075 511.995 512 507.07 512 500.995V283.442C512 277.367 507.075 272.442 501 272.442ZM172.751 168.13H211.747V272.443H172.751V168.13ZM490 489.994H22V294.442H490V489.994Z" fill="#7B97EF"/>
</g>
<defs>
<clipPath id="clip0_7_247">
<rect width="512" height="512" fill="white"/>
</clipPath>
</defs>
</svg>
